<?xml version="1.0" encoding="UTF-8" standalone="no"?>
<!DOCTYPE svg PUBLIC "-//W3C//DTD SVG 1.1//EN"
 "http://www.w3.org/Graphics/SVG/1.1/DTD/svg11.dtd">
<!-- Generated by graphviz version 2.50.0 (0)
 -->
<!-- Pages: 1 -->
<svg width="1659pt" height="816pt"
 viewBox="0.00 0.00 1659.00 816.00" xmlns="http://www.w3.org/2000/svg" xmlns:xlink="http://www.w3.org/1999/xlink">
<g id="graph0" class="graph" transform="scale(1 1) rotate(0) translate(4 812)">
<polygon fill="white" stroke="transparent" points="-4,4 -4,-812 1655,-812 1655,4 -4,4"/>
<!-- analysis -->
<g id="node1" class="node">
<title>analysis</title>
<polygon fill="none" stroke="black" points="1348.5,-419 1348.5,-447 1643.5,-447 1643.5,-419 1348.5,-419"/>
<text text-anchor="start" x="1464" y="-430.2" font-family="Helvetica,sans-Serif" font-weight="bold" font-size="16.00">analysis</text>
<polygon fill="none" stroke="black" points="1348.5,-394 1348.5,-419 1643.5,-419 1643.5,-394 1348.5,-394"/>
<text text-anchor="start" x="1353.5" y="-403.8" font-family="Helvetica,sans-Serif" text-decoration="underline" font-size="14.00">pkey</text>
<text text-anchor="start" x="1382.5" y="-403.8" font-family="Helvetica,sans-Serif" font-size="14.00"> [INTEGER]</text>
<text text-anchor="start" x="1455.5" y="-403.8" font-family="Helvetica,sans-Serif" font-size="14.00"> NOT NULL</text>
<polygon fill="none" stroke="black" points="1348.5,-369 1348.5,-394 1643.5,-394 1643.5,-369 1348.5,-369"/>
<text text-anchor="start" x="1353.5" y="-378.8" font-family="Helvetica,sans-Serif" font-size="14.00">analysis_function_pkey</text>
<text text-anchor="start" x="1493.5" y="-378.8" font-family="Helvetica,sans-Serif" font-size="14.00"> [INTEGER]</text>
<text text-anchor="start" x="1566.5" y="-378.8" font-family="Helvetica,sans-Serif" font-size="14.00"> NOT NULL</text>
<polygon fill="none" stroke="black" points="1348.5,-344 1348.5,-369 1643.5,-369 1643.5,-344 1348.5,-344"/>
<text text-anchor="start" x="1353.5" y="-353.8" font-family="Helvetica,sans-Serif" font-size="14.00">attributes</text>
<text text-anchor="start" x="1409.5" y="-353.8" font-family="Helvetica,sans-Serif" font-size="14.00"> [JSON]</text>
<polygon fill="none" stroke="black" points="1348.5,-319 1348.5,-344 1643.5,-344 1643.5,-319 1348.5,-319"/>
<text text-anchor="start" x="1353.5" y="-328.8" font-family="Helvetica,sans-Serif" font-size="14.00">device_data_pkey</text>
<text text-anchor="start" x="1462.5" y="-328.8" font-family="Helvetica,sans-Serif" font-size="14.00"> [INTEGER]</text>
<polygon fill="none" stroke="black" points="1348.5,-294 1348.5,-319 1643.5,-319 1643.5,-294 1348.5,-294"/>
<text text-anchor="start" x="1353.5" y="-303.8" font-family="Helvetica,sans-Serif" font-size="14.00">die_pkey</text>
<text text-anchor="start" x="1408.5" y="-303.8" font-family="Helvetica,sans-Serif" font-size="14.00"> [INTEGER]</text>
<polygon fill="none" stroke="black" points="1348.5,-269 1348.5,-294 1643.5,-294 1643.5,-269 1348.5,-269"/>
<text text-anchor="start" x="1353.5" y="-278.8" font-family="Helvetica,sans-Serif" font-size="14.00">input_hash</text>
<text text-anchor="start" x="1420.5" y="-278.8" font-family="Helvetica,sans-Serif" font-size="14.00"> [VARCHAR]</text>
<text text-anchor="start" x="1497.5" y="-278.8" font-family="Helvetica,sans-Serif" font-size="14.00"> NOT NULL</text>
<polygon fill="none" stroke="black" points="1348.5,-244 1348.5,-269 1643.5,-269 1643.5,-244 1348.5,-244"/>
<text text-anchor="start" x="1353.5" y="-253.8" font-family="Helvetica,sans-Serif" font-size="14.00">is_latest</text>
<text text-anchor="start" x="1403.5" y="-253.8" font-family="Helvetica,sans-Serif" font-size="14.00"> [BOOLEAN]</text>
<text text-anchor="start" x="1482.5" y="-253.8" font-family="Helvetica,sans-Serif" font-size="14.00"> NOT NULL</text>
<polygon fill="none" stroke="black" points="1348.5,-219 1348.5,-244 1643.5,-244 1643.5,-219 1348.5,-219"/>
<text text-anchor="start" x="1353.5" y="-228.8" font-family="Helvetica,sans-Serif" font-size="14.00">output</text>
<text text-anchor="start" x="1391.5" y="-228.8" font-family="Helvetica,sans-Serif" font-size="14.00"> [JSON]</text>
<polygon fill="none" stroke="black" points="1348.5,-194 1348.5,-219 1643.5,-219 1643.5,-194 1348.5,-194"/>
<text text-anchor="start" x="1353.5" y="-203.8" font-family="Helvetica,sans-Serif" font-size="14.00">parameters</text>
<text text-anchor="start" x="1423.5" y="-203.8" font-family="Helvetica,sans-Serif" font-size="14.00"> [JSON]</text>
<polygon fill="none" stroke="black" points="1348.5,-169 1348.5,-194 1643.5,-194 1643.5,-169 1348.5,-169"/>
<text text-anchor="start" x="1353.5" y="-178.8" font-family="Helvetica,sans-Serif" font-size="14.00">summary_plot</text>
<text text-anchor="start" x="1440.5" y="-178.8" font-family="Helvetica,sans-Serif" font-size="14.00"> [VARCHAR]</text>
<text text-anchor="start" x="1517.5" y="-178.8" font-family="Helvetica,sans-Serif" font-size="14.00"> NOT NULL</text>
<polygon fill="none" stroke="black" points="1348.5,-144 1348.5,-169 1643.5,-169 1643.5,-144 1348.5,-144"/>
<text text-anchor="start" x="1353.5" y="-153.8" font-family="Helvetica,sans-Serif" font-size="14.00">timestamp</text>
<text text-anchor="start" x="1417.5" y="-153.8" font-family="Helvetica,sans-Serif" font-size="14.00"> [DATETIME]</text>
<text text-anchor="start" x="1497.5" y="-153.8" font-family="Helvetica,sans-Serif" font-size="14.00"> NOT NULL</text>
<polygon fill="none" stroke="black" points="1348.5,-119 1348.5,-144 1643.5,-144 1643.5,-119 1348.5,-119"/>
<text text-anchor="start" x="1353.5" y="-128.8" font-family="Helvetica,sans-Serif" font-size="14.00">wafer_pkey</text>
<text text-anchor="start" x="1423.5" y="-128.8" font-family="Helvetica,sans-Serif" font-size="14.00"> [INTEGER]</text>
</g>
<!-- device_data -->
<g id="node2" class="node">
<title>device_data</title>
<polygon fill="none" stroke="black" points="988,-609 988,-637 1230,-637 1230,-609 988,-609"/>
<text text-anchor="start" x="1062.5" y="-620.2" font-family="Helvetica,sans-Serif" font-weight="bold" font-size="16.00">device_data</text>
<polygon fill="none" stroke="black" points="988,-584 988,-609 1230,-609 1230,-584 988,-584"/>
<text text-anchor="start" x="993" y="-593.8" font-family="Helvetica,sans-Serif" text-decoration="underline" font-size="14.00">pkey</text>
<text text-anchor="start" x="1022" y="-593.8" font-family="Helvetica,sans-Serif" font-size="14.00"> [INTEGER]</text>
<text text-anchor="start" x="1095" y="-593.8" font-family="Helvetica,sans-Serif" font-size="14.00"> NOT NULL</text>
<polygon fill="none" stroke="black" points="988,-559 988,-584 1230,-584 1230,-559 988,-559"/>
<text text-anchor="start" x="993" y="-568.8" font-family="Helvetica,sans-Serif" font-size="14.00">attributes</text>
<text text-anchor="start" x="1049" y="-568.8" font-family="Helvetica,sans-Serif" font-size="14.00"> [JSON]</text>
<polygon fill="none" stroke="black" points="988,-534 988,-559 1230,-559 1230,-534 988,-534"/>
<text text-anchor="start" x="993" y="-543.8" font-family="Helvetica,sans-Serif" font-size="14.00">data_type</text>
<text text-anchor="start" x="1053" y="-543.8" font-family="Helvetica,sans-Serif" font-size="14.00"> [VARCHAR(11)]</text>
<text text-anchor="start" x="1153" y="-543.8" font-family="Helvetica,sans-Serif" font-size="14.00"> NOT NULL</text>
<polygon fill="none" stroke="black" points="988,-509 988,-534 1230,-534 1230,-509 988,-509"/>
<text text-anchor="start" x="993" y="-518.8" font-family="Helvetica,sans-Serif" font-size="14.00">device_pkey</text>
<text text-anchor="start" x="1069" y="-518.8" font-family="Helvetica,sans-Serif" font-size="14.00"> [INTEGER]</text>
<polygon fill="none" stroke="black" points="988,-484 988,-509 1230,-509 1230,-484 988,-484"/>
<text text-anchor="start" x="993" y="-493.8" font-family="Helvetica,sans-Serif" font-size="14.00">die_pkey</text>
<text text-anchor="start" x="1048" y="-493.8" font-family="Helvetica,sans-Serif" font-size="14.00"> [INTEGER]</text>
<polygon fill="none" stroke="black" points="988,-459 988,-484 1230,-484 1230,-459 988,-459"/>
<text text-anchor="start" x="993" y="-468.8" font-family="Helvetica,sans-Serif" font-size="14.00">path</text>
<text text-anchor="start" x="1020" y="-468.8" font-family="Helvetica,sans-Serif" font-size="14.00"> [VARCHAR]</text>
<text text-anchor="start" x="1097" y="-468.8" font-family="Helvetica,sans-Serif" font-size="14.00"> NOT NULL</text>
<polygon fill="none" stroke="black" points="988,-434 988,-459 1230,-459 1230,-434 988,-434"/>
<text text-anchor="start" x="993" y="-443.8" font-family="Helvetica,sans-Serif" font-size="14.00">plotting_kwargs</text>
<text text-anchor="start" x="1087" y="-443.8" font-family="Helvetica,sans-Serif" font-size="14.00"> [JSON]</text>
<polygon fill="none" stroke="black" points="988,-409 988,-434 1230,-434 1230,-409 988,-409"/>
<text text-anchor="start" x="993" y="-418.8" font-family="Helvetica,sans-Serif" font-size="14.00">thumbnail_path</text>
<text text-anchor="start" x="1087" y="-418.8" font-family="Helvetica,sans-Serif" font-size="14.00"> [VARCHAR]</text>
<polygon fill="none" stroke="black" points="988,-384 988,-409 1230,-409 1230,-384 988,-384"/>
<text text-anchor="start" x="993" y="-393.8" font-family="Helvetica,sans-Serif" font-size="14.00">timestamp</text>
<text text-anchor="start" x="1057" y="-393.8" font-family="Helvetica,sans-Serif" font-size="14.00"> [DATETIME]</text>
<text text-anchor="start" x="1137" y="-393.8" font-family="Helvetica,sans-Serif" font-size="14.00"> NOT NULL</text>
<polygon fill="none" stroke="black" points="988,-359 988,-384 1230,-384 1230,-359 988,-359"/>
<text text-anchor="start" x="993" y="-368.8" font-family="Helvetica,sans-Serif" font-size="14.00">timestamp_acquired</text>
<text text-anchor="start" x="1117" y="-368.8" font-family="Helvetica,sans-Serif" font-size="14.00"> [DATETIME]</text>
<polygon fill="none" stroke="black" points="988,-334 988,-359 1230,-359 1230,-334 988,-334"/>
<text text-anchor="start" x="993" y="-343.8" font-family="Helvetica,sans-Serif" font-size="14.00">valid</text>
<text text-anchor="start" x="1021" y="-343.8" font-family="Helvetica,sans-Serif" font-size="14.00"> [BOOLEAN]</text>
<text text-anchor="start" x="1100" y="-343.8" font-family="Helvetica,sans-Serif" font-size="14.00"> NOT NULL</text>
</g>
<!-- device_data&#45;&#45;analysis -->
<g id="edge1" class="edge">
<title>device_data&#45;&#45;analysis</title>
<path fill="none" stroke="#7f7f7f" stroke-dasharray="5,2" d="M1238.03,-418.4C1270.69,-401.16 1306.15,-382.44 1339.98,-364.58"/>
<text text-anchor="start" x="1314.98" y="-353.38" font-family="Times New Roman,serif" font-size="14.00">0..N</text>
<text text-anchor="start" x="1238.03" y="-407.2" font-family="Times New Roman,serif" font-size="14.00">{0,1}</text>
</g>
<!-- device -->
<g id="node3" class="node">
<title>device</title>
<polygon fill="none" stroke="black" points="644,-776 644,-804 870,-804 870,-776 644,-776"/>
<text text-anchor="start" x="731.5" y="-787.2" font-family="Helvetica,sans-Serif" font-weight="bold" font-size="16.00">device</text>
<polygon fill="none" stroke="black" points="644,-751 644,-776 870,-776 870,-751 644,-751"/>
<text text-anchor="start" x="649" y="-760.8" font-family="Helvetica,sans-Serif" text-decoration="underline" font-size="14.00">pkey</text>
<text text-anchor="start" x="678" y="-760.8" font-family="Helvetica,sans-Serif" font-size="14.00"> [INTEGER]</text>
<text text-anchor="start" x="751" y="-760.8" font-family="Helvetica,sans-Serif" font-size="14.00"> NOT NULL</text>
<polygon fill="none" stroke="black" points="644,-726 644,-751 870,-751 870,-726 644,-726"/>
<text text-anchor="start" x="649" y="-735.8" font-family="Helvetica,sans-Serif" font-size="14.00">angle</text>
<text text-anchor="start" x="683" y="-735.8" font-family="Helvetica,sans-Serif" font-size="14.00"> [FLOAT]</text>
<polygon fill="none" stroke="black" points="644,-701 644,-726 870,-726 870,-701 644,-701"/>
<text text-anchor="start" x="649" y="-710.8" font-family="Helvetica,sans-Serif" font-size="14.00">attributes</text>
<text text-anchor="start" x="705" y="-710.8" font-family="Helvetica,sans-Serif" font-size="14.00"> [JSON]</text>
<polygon fill="none" stroke="black" points="644,-676 644,-701 870,-701 870,-676 644,-676"/>
<text text-anchor="start" x="649" y="-685.8" font-family="Helvetica,sans-Serif" font-size="14.00">cell_pkey</text>
<text text-anchor="start" x="706" y="-685.8" font-family="Helvetica,sans-Serif" font-size="14.00"> [INTEGER]</text>
<text text-anchor="start" x="779" y="-685.8" font-family="Helvetica,sans-Serif" font-size="14.00"> NOT NULL</text>
<polygon fill="none" stroke="black" points="644,-651 644,-676 870,-676 870,-651 644,-651"/>
<text text-anchor="start" x="649" y="-660.8" font-family="Helvetica,sans-Serif" font-size="14.00">device_id</text>
<text text-anchor="start" x="707" y="-660.8" font-family="Helvetica,sans-Serif" font-size="14.00"> [VARCHAR]</text>
<text text-anchor="start" x="784" y="-660.8" font-family="Helvetica,sans-Serif" font-size="14.00"> NOT NULL</text>
<polygon fill="none" stroke="black" points="644,-626 644,-651 870,-651 870,-626 644,-626"/>
<text text-anchor="start" x="649" y="-635.8" font-family="Helvetica,sans-Serif" font-size="14.00">mirror</text>
<text text-anchor="start" x="686" y="-635.8" font-family="Helvetica,sans-Serif" font-size="14.00"> [BOOLEAN]</text>
<polygon fill="none" stroke="black" points="644,-601 644,-626 870,-626 870,-601 644,-601"/>
<text text-anchor="start" x="649" y="-610.8" font-family="Helvetica,sans-Serif" font-size="14.00">parent_cell_pkey</text>
<text text-anchor="start" x="752" y="-610.8" font-family="Helvetica,sans-Serif" font-size="14.00"> [INTEGER]</text>
<polygon fill="none" stroke="black" points="644,-576 644,-601 870,-601 870,-576 644,-576"/>
<text text-anchor="start" x="649" y="-585.8" font-family="Helvetica,sans-Serif" font-size="14.00">timestamp</text>
<text text-anchor="start" x="713" y="-585.8" font-family="Helvetica,sans-Serif" font-size="14.00"> [DATETIME]</text>
<text text-anchor="start" x="793" y="-585.8" font-family="Helvetica,sans-Serif" font-size="14.00"> NOT NULL</text>
<polygon fill="none" stroke="black" points="644,-551 644,-576 870,-576 870,-551 644,-551"/>
<text text-anchor="start" x="649" y="-560.8" font-family="Helvetica,sans-Serif" font-size="14.00">x</text>
<text text-anchor="start" x="656" y="-560.8" font-family="Helvetica,sans-Serif" font-size="14.00"> [FLOAT]</text>
<polygon fill="none" stroke="black" points="644,-526 644,-551 870,-551 870,-526 644,-526"/>
<text text-anchor="start" x="649" y="-535.8" font-family="Helvetica,sans-Serif" font-size="14.00">y</text>
<text text-anchor="start" x="656" y="-535.8" font-family="Helvetica,sans-Serif" font-size="14.00"> [FLOAT]</text>
</g>
<!-- device&#45;&#45;device_data -->
<g id="edge2" class="edge">
<title>device&#45;&#45;device_data</title>
<path fill="none" stroke="#7f7f7f" stroke-dasharray="5,2" d="M878.45,-603.4C911.18,-586.66 946.73,-568.48 979.86,-551.53"/>
<text text-anchor="start" x="954.86" y="-540.33" font-family="Times New Roman,serif" font-size="14.00">0..N</text>
<text text-anchor="start" x="878.45" y="-592.2" font-family="Times New Roman,serif" font-size="14.00">{0,1}</text>
</g>
<!-- cell -->
<g id="node4" class="node">
<title>cell</title>
<polygon fill="none" stroke="black" points="323,-713 323,-741 555,-741 555,-713 323,-713"/>
<text text-anchor="start" x="425" y="-724.2" font-family="Helvetica,sans-Serif" font-weight="bold" font-size="16.00">cell</text>
<polygon fill="none" stroke="black" points="323,-688 323,-713 555,-713 555,-688 323,-688"/>
<text text-anchor="start" x="328" y="-697.8" font-family="Helvetica,sans-Serif" text-decoration="underline" font-size="14.00">pkey</text>
<text text-anchor="start" x="357" y="-697.8" font-family="Helvetica,sans-Serif" font-size="14.00"> [INTEGER]</text>
<text text-anchor="start" x="430" y="-697.8" font-family="Helvetica,sans-Serif" font-size="14.00"> NOT NULL</text>
<polygon fill="none" stroke="black" points="323,-663 323,-688 555,-688 555,-663 323,-663"/>
<text text-anchor="start" x="328" y="-672.8" font-family="Helvetica,sans-Serif" font-size="14.00">attributes</text>
<text text-anchor="start" x="384" y="-672.8" font-family="Helvetica,sans-Serif" font-size="14.00"> [JSON]</text>
<polygon fill="none" stroke="black" points="323,-638 323,-663 555,-663 555,-638 323,-638"/>
<text text-anchor="start" x="328" y="-647.8" font-family="Helvetica,sans-Serif" font-size="14.00">cell_id</text>
<text text-anchor="start" x="367" y="-647.8" font-family="Helvetica,sans-Serif" font-size="14.00"> [VARCHAR]</text>
<text text-anchor="start" x="444" y="-647.8" font-family="Helvetica,sans-Serif" font-size="14.00"> NOT NULL</text>
<polygon fill="none" stroke="black" points="323,-613 323,-638 555,-638 555,-613 323,-613"/>
<text text-anchor="start" x="328" y="-622.8" font-family="Helvetica,sans-Serif" font-size="14.00">project_pkey</text>
<text text-anchor="start" x="405" y="-622.8" font-family="Helvetica,sans-Serif" font-size="14.00"> [INTEGER]</text>
<text text-anchor="start" x="478" y="-622.8" font-family="Helvetica,sans-Serif" font-size="14.00"> NOT NULL</text>
<polygon fill="none" stroke="black" points="323,-588 323,-613 555,-613 555,-588 323,-588"/>
<text text-anchor="start" x="328" y="-597.8" font-family="Helvetica,sans-Serif" font-size="14.00">timestamp</text>
<text text-anchor="start" x="392" y="-597.8" font-family="Helvetica,sans-Serif" font-size="14.00"> [DATETIME]</text>
<text text-anchor="start" x="472" y="-597.8" font-family="Helvetica,sans-Serif" font-size="14.00"> NOT NULL</text>
</g>
<!-- cell&#45;&#45;device -->
<g id="edge3" class="edge">
<title>cell&#45;&#45;device</title>
<path fill="none" stroke="#7f7f7f" stroke-dasharray="5,2" d="M563.08,-658.4C586.99,-658.19 612.03,-658.2 635.85,-658.43"/>
<text text-anchor="start" x="610.85" y="-647.23" font-family="Times New Roman,serif" font-size="14.00">0..N</text>
<text text-anchor="start" x="563.08" y="-647.2" font-family="Times New Roman,serif" font-size="14.00">1</text>
</g>
<!-- cell&#45;&#45;device -->
<g id="edge4" class="edge">
<title>cell&#45;&#45;device</title>
<path fill="none" stroke="#7f7f7f" stroke-dasharray="5,2" d="M563.08,-671.6C586.99,-671.81 612.03,-671.8 635.85,-671.57"/>
<text text-anchor="start" x="610.85" y="-675.37" font-family="Times New Roman,serif" font-size="14.00">0..N</text>
<text text-anchor="start" x="563.08" y="-675.4" font-family="Times New Roman,serif" font-size="14.00">{0,1}</text>
</g>
<!-- project -->
<g id="node5" class="node">
<title>project</title>
<polygon fill="none" stroke="black" points="8,-579 8,-607 234,-607 234,-579 8,-579"/>
<text text-anchor="start" x="94" y="-590.2" font-family="Helvetica,sans-Serif" font-weight="bold" font-size="16.00">project</text>
<polygon fill="none" stroke="black" points="8,-554 8,-579 234,-579 234,-554 8,-554"/>
<text text-anchor="start" x="13" y="-563.8" font-family="Helvetica,sans-Serif" text-decoration="underline" font-size="14.00">pkey</text>
<text text-anchor="start" x="42" y="-563.8" font-family="Helvetica,sans-Serif" font-size="14.00"> [INTEGER]</text>
<text text-anchor="start" x="115" y="-563.8" font-family="Helvetica,sans-Serif" font-size="14.00"> NOT NULL</text>
<polygon fill="none" stroke="black" points="8,-529 8,-554 234,-554 234,-529 8,-529"/>
<text text-anchor="start" x="13" y="-538.8" font-family="Helvetica,sans-Serif" font-size="14.00">description</text>
<text text-anchor="start" x="79" y="-538.8" font-family="Helvetica,sans-Serif" font-size="14.00"> [VARCHAR]</text>
<polygon fill="none" stroke="black" points="8,-504 8,-529 234,-529 234,-504 8,-504"/>
<text text-anchor="start" x="13" y="-513.8" font-family="Helvetica,sans-Serif" font-size="14.00">project_id</text>
<text text-anchor="start" x="72" y="-513.8" font-family="Helvetica,sans-Serif" font-size="14.00"> [VARCHAR]</text>
<text text-anchor="start" x="149" y="-513.8" font-family="Helvetica,sans-Serif" font-size="14.00"> NOT NULL</text>
<polygon fill="none" stroke="black" points="8,-479 8,-504 234,-504 234,-479 8,-479"/>
<text text-anchor="start" x="13" y="-488.8" font-family="Helvetica,sans-Serif" font-size="14.00">suffix</text>
<text text-anchor="start" x="45" y="-488.8" font-family="Helvetica,sans-Serif" font-size="14.00"> [VARCHAR]</text>
<text text-anchor="start" x="122" y="-488.8" font-family="Helvetica,sans-Serif" font-size="14.00"> NOT NULL</text>
<polygon fill="none" stroke="black" points="8,-454 8,-479 234,-479 234,-454 8,-454"/>
<text text-anchor="start" x="13" y="-463.8" font-family="Helvetica,sans-Serif" font-size="14.00">timestamp</text>
<text text-anchor="start" x="77" y="-463.8" font-family="Helvetica,sans-Serif" font-size="14.00"> [DATETIME]</text>
<text text-anchor="start" x="157" y="-463.8" font-family="Helvetica,sans-Serif" font-size="14.00"> NOT NULL</text>
</g>
<!-- project&#45;&#45;cell -->
<g id="edge5" class="edge">
<title>project&#45;&#45;cell</title>
<path fill="none" stroke="#7f7f7f" stroke-dasharray="5,2" d="M242.37,-582.04C266.09,-592.1 291.01,-602.67 314.82,-612.77"/>
<text text-anchor="start" x="289.82" y="-601.57" font-family="Times New Roman,serif" font-size="14.00">0..N</text>
<text text-anchor="start" x="242.37" y="-570.84" font-family="Times New Roman,serif" font-size="14.00">1</text>
</g>
<!-- wafer -->
<g id="node6" class="node">
<title>wafer</title>
<polygon fill="none" stroke="black" points="323,-471 323,-499 555,-499 555,-471 323,-471"/>
<text text-anchor="start" x="417.5" y="-482.2" font-family="Helvetica,sans-Serif" font-weight="bold" font-size="16.00">wafer</text>
<polygon fill="none" stroke="black" points="323,-446 323,-471 555,-471 555,-446 323,-446"/>
<text text-anchor="start" x="328" y="-455.8" font-family="Helvetica,sans-Serif" text-decoration="underline" font-size="14.00">pkey</text>
<text text-anchor="start" x="357" y="-455.8" font-family="Helvetica,sans-Serif" font-size="14.00"> [INTEGER]</text>
<text text-anchor="start" x="430" y="-455.8" font-family="Helvetica,sans-Serif" font-size="14.00"> NOT NULL</text>
<polygon fill="none" stroke="black" points="323,-421 323,-446 555,-446 555,-421 323,-421"/>
<text text-anchor="start" x="328" y="-430.8" font-family="Helvetica,sans-Serif" font-size="14.00">attributes</text>
<text text-anchor="start" x="384" y="-430.8" font-family="Helvetica,sans-Serif" font-size="14.00"> [JSON]</text>
<polygon fill="none" stroke="black" points="323,-396 323,-421 555,-421 555,-396 323,-396"/>
<text text-anchor="start" x="328" y="-405.8" font-family="Helvetica,sans-Serif" font-size="14.00">description</text>
<text text-anchor="start" x="394" y="-405.8" font-family="Helvetica,sans-Serif" font-size="14.00"> [VARCHAR]</text>
<polygon fill="none" stroke="black" points="323,-371 323,-396 555,-396 555,-371 323,-371"/>
<text text-anchor="start" x="328" y="-380.8" font-family="Helvetica,sans-Serif" font-size="14.00">lot_id</text>
<text text-anchor="start" x="361" y="-380.8" font-family="Helvetica,sans-Serif" font-size="14.00"> [VARCHAR]</text>
<polygon fill="none" stroke="black" points="323,-346 323,-371 555,-371 555,-346 323,-346"/>
<text text-anchor="start" x="328" y="-355.8" font-family="Helvetica,sans-Serif" font-size="14.00">project_pkey</text>
<text text-anchor="start" x="405" y="-355.8" font-family="Helvetica,sans-Serif" font-size="14.00"> [INTEGER]</text>
<text text-anchor="start" x="478" y="-355.8" font-family="Helvetica,sans-Serif" font-size="14.00"> NOT NULL</text>
<polygon fill="none" stroke="black" points="323,-321 323,-346 555,-346 555,-321 323,-321"/>
<text text-anchor="start" x="328" y="-330.8" font-family="Helvetica,sans-Serif" font-size="14.00">timestamp</text>
<text text-anchor="start" x="392" y="-330.8" font-family="Helvetica,sans-Serif" font-size="14.00"> [DATETIME]</text>
<text text-anchor="start" x="472" y="-330.8" font-family="Helvetica,sans-Serif" font-size="14.00"> NOT NULL</text>
<polygon fill="none" stroke="black" points="323,-296 323,-321 555,-321 555,-296 323,-296"/>
<text text-anchor="start" x="328" y="-305.8" font-family="Helvetica,sans-Serif" font-size="14.00">wafer_id</text>
<text text-anchor="start" x="380" y="-305.8" font-family="Helvetica,sans-Serif" font-size="14.00"> [VARCHAR]</text>
<text text-anchor="start" x="457" y="-305.8" font-family="Helvetica,sans-Serif" font-size="14.00"> NOT NULL</text>
</g>
<!-- project&#45;&#45;wafer -->
<g id="edge6" class="edge">
<title>project&#45;&#45;wafer</title>
<path fill="none" stroke="#7f7f7f" stroke-dasharray="5,2" d="M242.37,-480.34C266.09,-470.36 291.01,-459.87 314.82,-449.84"/>
<text text-anchor="start" x="289.82" y="-438.64" font-family="Times New Roman,serif" font-size="14.00">0..N</text>
<text text-anchor="start" x="242.37" y="-469.14" font-family="Times New Roman,serif" font-size="14.00">1</text>
</g>
<!-- wafer&#45;&#45;analysis -->
<g id="edge9" class="edge">
<title>wafer&#45;&#45;analysis</title>
<path fill="none" stroke="#7f7f7f" stroke-dasharray="5,2" d="M563.12,-316.49C586.58,-303.67 611.49,-291.78 636,-283 686.84,-264.8 702,-264 756,-264 756,-264 756,-264 1110,-264 1185.69,-264 1269.66,-267.72 1339.77,-271.87"/>
<text text-anchor="start" x="1314.77" y="-260.67" font-family="Times New Roman,serif" font-size="14.00">0..N</text>
<text text-anchor="start" x="563.12" y="-305.29" font-family="Times New Roman,serif" font-size="14.00">{0,1}</text>
</g>
<!-- die -->
<g id="node7" class="node">
<title>die</title>
<polygon fill="none" stroke="black" points="644,-471 644,-499 870,-499 870,-471 644,-471"/>
<text text-anchor="start" x="745" y="-482.2" font-family="Helvetica,sans-Serif" font-weight="bold" font-size="16.00">die</text>
<polygon fill="none" stroke="black" points="644,-446 644,-471 870,-471 870,-446 644,-446"/>
<text text-anchor="start" x="649" y="-455.8" font-family="Helvetica,sans-Serif" text-decoration="underline" font-size="14.00">pkey</text>
<text text-anchor="start" x="678" y="-455.8" font-family="Helvetica,sans-Serif" font-size="14.00"> [INTEGER]</text>
<text text-anchor="start" x="751" y="-455.8" font-family="Helvetica,sans-Serif" font-size="14.00"> NOT NULL</text>
<polygon fill="none" stroke="black" points="644,-421 644,-446 870,-446 870,-421 644,-421"/>
<text text-anchor="start" x="649" y="-430.8" font-family="Helvetica,sans-Serif" font-size="14.00">attributes</text>
<text text-anchor="start" x="705" y="-430.8" font-family="Helvetica,sans-Serif" font-size="14.00"> [JSON]</text>
<polygon fill="none" stroke="black" points="644,-396 644,-421 870,-421 870,-396 644,-396"/>
<text text-anchor="start" x="649" y="-405.8" font-family="Helvetica,sans-Serif" font-size="14.00">die_id</text>
<text text-anchor="start" x="686" y="-405.8" font-family="Helvetica,sans-Serif" font-size="14.00"> [VARCHAR]</text>
<polygon fill="none" stroke="black" points="644,-371 644,-396 870,-396 870,-371 644,-371"/>
<text text-anchor="start" x="649" y="-380.8" font-family="Helvetica,sans-Serif" font-size="14.00">timestamp</text>
<text text-anchor="start" x="713" y="-380.8" font-family="Helvetica,sans-Serif" font-size="14.00"> [DATETIME]</text>
<text text-anchor="start" x="793" y="-380.8" font-family="Helvetica,sans-Serif" font-size="14.00"> NOT NULL</text>
<polygon fill="none" stroke="black" points="644,-346 644,-371 870,-371 870,-346 644,-346"/>
<text text-anchor="start" x="649" y="-355.8" font-family="Helvetica,sans-Serif" font-size="14.00">wafer_pkey</text>
<text text-anchor="start" x="719" y="-355.8" font-family="Helvetica,sans-Serif" font-size="14.00"> [INTEGER]</text>
<text text-anchor="start" x="792" y="-355.8" font-family="Helvetica,sans-Serif" font-size="14.00"> NOT NULL</text>
<polygon fill="none" stroke="black" points="644,-321 644,-346 870,-346 870,-321 644,-321"/>
<text text-anchor="start" x="649" y="-330.8" font-family="Helvetica,sans-Serif" font-size="14.00">x</text>
<text text-anchor="start" x="656" y="-330.8" font-family="Helvetica,sans-Serif" font-size="14.00"> [INTEGER]</text>
<text text-anchor="start" x="729" y="-330.8" font-family="Helvetica,sans-Serif" font-size="14.00"> NOT NULL</text>
<polygon fill="none" stroke="black" points="644,-296 644,-321 870,-321 870,-296 644,-296"/>
<text text-anchor="start" x="649" y="-305.8" font-family="Helvetica,sans-Serif" font-size="14.00">y</text>
<text text-anchor="start" x="656" y="-305.8" font-family="Helvetica,sans-Serif" font-size="14.00"> [INTEGER]</text>
<text text-anchor="start" x="729" y="-305.8" font-family="Helvetica,sans-Serif" font-size="14.00"> NOT NULL</text>
</g>
<!-- wafer&#45;&#45;die -->
<g id="edge10" class="edge">
<title>wafer&#45;&#45;die</title>
<path fill="none" stroke="#7f7f7f" stroke-dasharray="5,2" d="M563.08,-398C586.99,-398 612.03,-398 635.85,-398"/>
<text text-anchor="start" x="610.85" y="-386.8" font-family="Times New Roman,serif" font-size="14.00">0..N</text>
<text text-anchor="start" x="563.08" y="-386.8" font-family="Times New Roman,serif" font-size="14.00">1</text>
</g>
<!-- die&#45;&#45;analysis -->
<g id="edge7" class="edge">
<title>die&#45;&#45;analysis</title>
<path fill="none" stroke="#7f7f7f" stroke-dasharray="5,2" d="M878.17,-343.45C901.89,-334.58 926.91,-326.51 951,-321 1079.86,-291.55 1230,-282.93 1339.78,-281.17"/>
<text text-anchor="start" x="1314.78" y="-284.97" font-family="Times New Roman,serif" font-size="14.00">0..N</text>
<text text-anchor="start" x="878.17" y="-332.25" font-family="Times New Roman,serif" font-size="14.00">{0,1}</text>
</g>
<!-- die&#45;&#45;device_data -->
<g id="edge8" class="edge">
<title>die&#45;&#45;device_data</title>
<path fill="none" stroke="#7f7f7f" stroke-dasharray="5,2" d="M878.45,-428.28C911.18,-436.51 946.73,-445.45 979.86,-453.78"/>
<text text-anchor="start" x="954.86" y="-442.58" font-family="Times New Roman,serif" font-size="14.00">0..N</text>
<text text-anchor="start" x="878.45" y="-417.08" font-family="Times New Roman,serif" font-size="14.00">{0,1}</text>
</g>
<!-- analysis_function -->
<g id="node8" class="node">
<title>analysis_function</title>
<polygon fill="none" stroke="black" points="959,-204 959,-232 1259,-232 1259,-204 959,-204"/>
<text text-anchor="start" x="1041" y="-215.2" font-family="Helvetica,sans-Serif" font-weight="bold" font-size="16.00">analysis_function</text>
<polygon fill="none" stroke="black" points="959,-179 959,-204 1259,-204 1259,-179 959,-179"/>
<text text-anchor="start" x="964" y="-188.8" font-family="Helvetica,sans-Serif" text-decoration="underline" font-size="14.00">pkey</text>
<text text-anchor="start" x="993" y="-188.8" font-family="Helvetica,sans-Serif" font-size="14.00"> [INTEGER]</text>
<text text-anchor="start" x="1066" y="-188.8" font-family="Helvetica,sans-Serif" font-size="14.00"> NOT NULL</text>
<polygon fill="none" stroke="black" points="959,-154 959,-179 1259,-179 1259,-154 959,-154"/>
<text text-anchor="start" x="964" y="-163.8" font-family="Helvetica,sans-Serif" font-size="14.00">analysis_function_id</text>
<text text-anchor="start" x="1086" y="-163.8" font-family="Helvetica,sans-Serif" font-size="14.00"> [VARCHAR]</text>
<text text-anchor="start" x="1163" y="-163.8" font-family="Helvetica,sans-Serif" font-size="14.00"> NOT NULL</text>
<polygon fill="none" stroke="black" points="959,-129 959,-154 1259,-154 1259,-129 959,-129"/>
<text text-anchor="start" x="964" y="-138.8" font-family="Helvetica,sans-Serif" font-size="14.00">function_path</text>
<text text-anchor="start" x="1046" y="-138.8" font-family="Helvetica,sans-Serif" font-size="14.00"> [VARCHAR]</text>
<text text-anchor="start" x="1123" y="-138.8" font-family="Helvetica,sans-Serif" font-size="14.00"> NOT NULL</text>
<polygon fill="none" stroke="black" points="959,-104 959,-129 1259,-129 1259,-104 959,-104"/>
<text text-anchor="start" x="964" y="-113.8" font-family="Helvetica,sans-Serif" font-size="14.00">hash</text>
<text text-anchor="start" x="994" y="-113.8" font-family="Helvetica,sans-Serif" font-size="14.00"> [VARCHAR]</text>
<text text-anchor="start" x="1071" y="-113.8" font-family="Helvetica,sans-Serif" font-size="14.00"> NOT NULL</text>
<polygon fill="none" stroke="black" points="959,-79 959,-104 1259,-104 1259,-79 959,-79"/>
<text text-anchor="start" x="964" y="-88.8" font-family="Helvetica,sans-Serif" font-size="14.00">target_model</text>
<text text-anchor="start" x="1044" y="-88.8" font-family="Helvetica,sans-Serif" font-size="14.00"> [VARCHAR(11)]</text>
<text text-anchor="start" x="1144" y="-88.8" font-family="Helvetica,sans-Serif" font-size="14.00"> NOT NULL</text>
<polygon fill="none" stroke="black" points="959,-54 959,-79 1259,-79 1259,-54 959,-54"/>
<text text-anchor="start" x="964" y="-63.8" font-family="Helvetica,sans-Serif" font-size="14.00">test_target_model_pkey</text>
<text text-anchor="start" x="1109" y="-63.8" font-family="Helvetica,sans-Serif" font-size="14.00"> [INTEGER]</text>
<text text-anchor="start" x="1182" y="-63.8" font-family="Helvetica,sans-Serif" font-size="14.00"> NOT NULL</text>
<polygon fill="none" stroke="black" points="959,-29 959,-54 1259,-54 1259,-29 959,-29"/>
<text text-anchor="start" x="964" y="-38.8" font-family="Helvetica,sans-Serif" font-size="14.00">timestamp</text>
<text text-anchor="start" x="1028" y="-38.8" font-family="Helvetica,sans-Serif" font-size="14.00"> [DATETIME]</text>
<text text-anchor="start" x="1108" y="-38.8" font-family="Helvetica,sans-Serif" font-size="14.00"> NOT NULL</text>
<polygon fill="none" stroke="black" points="959,-4 959,-29 1259,-29 1259,-4 959,-4"/>
<text text-anchor="start" x="964" y="-13.8" font-family="Helvetica,sans-Serif" font-size="14.00">version</text>
<text text-anchor="start" x="1008" y="-13.8" font-family="Helvetica,sans-Serif" font-size="14.00"> [INTEGER]</text>
<text text-anchor="start" x="1081" y="-13.8" font-family="Helvetica,sans-Serif" font-size="14.00"> NOT NULL</text>
</g>
<!-- analysis_function&#45;&#45;analysis -->
<g id="edge11" class="edge">
<title>analysis_function&#45;&#45;analysis</title>
<path fill="none" stroke="#7f7f7f" stroke-dasharray="5,2" d="M1267.22,-185.47C1291.19,-195.75 1315.91,-206.36 1339.83,-216.62"/>
<text text-anchor="start" x="1314.83" y="-205.42" font-family="Times New Roman,serif" font-size="14.00">0..N</text>
<text text-anchor="start" x="1267.22" y="-174.27" font-family="Times New Roman,serif" font-size="14.00">1</text>
</g>
</g>
</svg>
